<svg viewBox="0 0 97 58.8" xmlns="http://www.w3.org/2000/svg"><path d="m86.6 20.4a34.39 34.39 0 0 0 -10.4-4.2 55.18 55.18 0 0 0 -11.8-1.5h-.1a3 3 0 0 0 -1 .2c-.2-.3-.4-.7-.6-1a26.39 26.39 0 0 0 -7.3-7.6 35.29 35.29 0 0 0 -10-4.7 51.44 51.44 0 0 0 -13-1.6 52.58 52.58 0 0 0 -13 1.6 35.29 35.29 0 0 0 -10 4.7 25.23 25.23 0 0 0 -7.3 7.6 16.64 16.64 0 0 0 -2.1 7.9 16.26 16.26 0 0 0 2.1 7.8 25.59 25.59 0 0 0 7.3 7.7 14 14 0 0 0 1.7.9 19.8 19.8 0 0 1 -6.1 8.1 19.79 19.79 0 0 0 12.4-5.2c.7.3 1.4.5 2 .8a52.06 52.06 0 0 0 12.3 1.7 2.52 2.52 0 0 0 .6 1.7 24.45 24.45 0 0 0 6.6 5.3 37.86 37.86 0 0 0 10.4 4.2 57.3 57.3 0 0 0 13.4 1.5 57.68 57.68 0 0 0 13.3-1.5 10.41 10.41 0 0 0 2.2-.6 22.17 22.17 0 0 0 12.4 4.6h.1a2.59 2.59 0 0 0 2.4-1.7 2.51 2.51 0 0 0 -.8-2.9 18.51 18.51 0 0 1 -4.1-4.7 23.25 23.25 0 0 0 6.3-6.2 13.73 13.73 0 0 0 2.5-7.9 13 13 0 0 0 -2.5-7.8 19.56 19.56 0 0 0 -7.9-7.2zm6.1 21.5a21.33 21.33 0 0 1 -7.6 6.7 22.35 22.35 0 0 0 5.9 7.7 19.23 19.23 0 0 1 -12.1-5 18 18 0 0 1 -3.3 1 55.08 55.08 0 0 1 -12.7 1.5 50.6 50.6 0 0 1 -12.9-1.5 32.9 32.9 0 0 1 -9.7-3.9 21.2 21.2 0 0 1 -6-4.7c.5 0 .9-.1 1.4-.1h.1c.8-.1 1.7-.1 2.5-.2.4 0 .7-.1 1.1-.1.9-.1 1.8-.3 2.7-.4h.1a28.17 28.17 0 0 0 3.1-.7 35.05 35.05 0 0 0 10-4.6 23.41 23.41 0 0 0 7.3-7.7 14.5 14.5 0 0 0 2.3-7.8v-1.3c0-.3-.1-.5-.1-.8s-.1-.5-.1-.8v-.2c-.1-.5-.2-.9-.3-1.4a53.88 53.88 0 0 1 11.3 1.5 31.36 31.36 0 0 1 9.7 3.9 20.41 20.41 0 0 1 7.3 6.4 10.28 10.28 0 0 1 2 6.3 11.38 11.38 0 0 1 -2 6.2z"/></svg>