<svg viewBox="0 0 199.89 43.75" xmlns="http://www.w3.org/2000/svg" xmlns:xlink="http://www.w3.org/1999/xlink"><clipPath id="a"><path d="m0 0h199.89v43.75h-199.89z"/></clipPath><g clip-path="url(#a)"><path d="m171.28 33.42-1.68-4-1.73 4zm-9.5-5.14h-.42v3.59h.75c1.25 0 2.31-.38 2.31-1.82 0-1.65-1.33-1.77-2.64-1.77m-45.56 0h-.42v3.59h.75c1.25 0 2.31-.38 2.31-1.82 0-1.65-1.33-1.77-2.64-1.77m-41.54 0h-.81v8h.81a4.23 4.23 0 0 0 3.19-1 4.12 4.12 0 0 0 -.05-6 4.34 4.34 0 0 0 -3.14-1m-7.73 0h-.34v3.63h.39c1.27 0 2.56-.24 2.56-1.81s-1.26-1.82-2.56-1.82m-59.7 0h-.46v3.59h.75c1.24 0 2.3-.38 2.3-1.82 0-1.65-1.33-1.77-2.64-1.77m6.09 5.14h3.42l-1.69-4zm8.86-1.51c1.28 0 2.56-.24 2.56-1.81s-1.22-1.82-2.57-1.82h-.34v3.63zm40.64.37a4.14 4.14 0 1 0 -4.14 4.18 4.14 4.14 0 0 0 4.14-4.18m11.07-18.69a4.21 4.21 0 1 0 -8.38 0c0 2.2 1.1 4.92 4.19 4.92s4.19-2.72 4.19-4.92m35.06 0a4.21 4.21 0 1 0 -8.38 0c0 2.2 1.1 4.92 4.19 4.92s4.22-2.72 4.22-4.92m9.5-2.94c0-1.46-.83-1.84-2-1.84h-.36v3.72h.34c1.37 0 2-.39 2-1.88m1 5.94c0-1.86-1.52-1.94-2.92-1.94h-.46v4h.59c1.5 0 2.79-.19 2.79-2.05m19.52-5.6c0-1.77-1.12-2.11-2.6-2.11h-.4v4.31h.36c1.54 0 2.62-.46 2.62-2.2m28.38 2.75c0-1.44-.4-5.09-2.39-5.09s-2.39 3.65-2.39 5.09.42 5.12 2.39 5.12 2.39-3.7 2.39-5.12m9.34 18.2c1.27 0 2.56-.24 2.56-1.81s-1.22-1.82-2.57-1.82h-.34v3.63zm12-21.63a1.68 1.68 0 1 0 -3.3 0 1.68 1.68 0 1 0 3.3 0m.17 6.48a1.85 1.85 0 1 0 -3.64 0 1.85 1.85 0 1 0 3.64 0m.5-3.34a3.65 3.65 0 0 1 2.31 3.64 4.65 4.65 0 0 1 -9.25 0 3.64 3.64 0 0 1 2.31-3.64 3.49 3.49 0 0 1 -1.88-3.14 4.19 4.19 0 0 1 8.38 0 3.5 3.5 0 0 1 -1.87 3.14m-11.49 19.34 3.21 4.53h-1.38l-3.05-4.43h-.28v4.43h-1.12v-10.09h1.46c1.91 0 3.69.51 3.69 2.78a2.63 2.63 0 0 1 -2.53 2.78m.12-11.93h-2.78v-11.87h-1.88v-2.42h4.66zm-7.87-7.12c0 3.05-1.33 7.5-5.12 7.5s-5.12-4.45-5.12-7.5 1.28-7.55 5.11-7.55 5.12 4.47 5.12 7.55m-11.49 7.12h-9.63l3.64-4.58c1-1.26 3.11-3.74 3.11-5.35 0-1-.66-2.32-1.84-2.32s-1.82 1.37-1.76 2.45h-3c.19-2.75 1.76-4.87 4.7-4.87a4.55 4.55 0 0 1 4.65 4.61c0 2.1-1.18 3.67-2.49 5.19l-2.01 2.45h4.68zm-11.33 16.46h-5.23v-10.09h5.23v1h-4.11v3h4v1h-4v4h4.11zm-8.42-22.49 4 6h-3.37l-3.47-5.76v5.76h-2.79v-14.26h3.75c2.83 0 4.78 1.25 4.78 4.3a3.77 3.77 0 0 1 -2.91 4m-6.33 20.21v-7.85h1.12v10.54l-7.87-8.23v7.78h-1.12v-10.52zm-1.26-14.18h-7.38v-14.33h7.39v2.42h-4.61v3.15h4.44v2.43h-4.44v3.87h4.61zm-8.73 16.46h-1.12v-10.13h1.12zm-.3-20.51c0 2.8-2 4.05-4.57 4.05h-4.37v-14.33h3.46c2.66 0 4.29 1 4.29 3.89a3.25 3.25 0 0 1 -1.25 2.76c1.68.31 2.44 2 2.44 3.59m-9.5 20.51h-5.23v-10.09h5.23v1h-4.11v3h4v1h-4v4h4.11zm-.91-23.62c0 4.21-2.71 7.54-7.07 7.54s-7.07-3.33-7.07-7.54 2.8-7.51 7.07-7.51 7.07 3.26 7.07 7.51m-14.35 13.53h1.13v9.05h2.78v1h-3.91zm-.22-18.24h-2.88v11.87h-2.79v-11.87h-2.88v-2.42h8.55zm-9.46 11.4a7.55 7.55 0 0 1 -3.24.85 7.21 7.21 0 0 1 -7-7.41c0-4.06 2.86-7.64 7.05-7.64a6.68 6.68 0 0 1 3.19.8v3.34a4.12 4.12 0 0 0 -3.15-1.52c-2.67 0-4.21 2.47-4.21 4.93s1.55 4.85 4.19 4.85a4.33 4.33 0 0 0 3.17-1.52zm-11-6.69c0 4.21-2.71 7.54-7.07 7.54s-7.07-3.33-7.07-7.54 2.8-7.51 7.07-7.51 7.07 3.26 7.07 7.51m-12.81 18.59a5.26 5.26 0 1 1 -5.26-5.24 5.23 5.23 0 0 1 5.26 5.24m-13.6-21.11h.72a4.69 4.69 0 0 1 4.61 5 4.92 4.92 0 0 1 -5.2 5.13 5.42 5.42 0 0 1 -4.24-1.89l.83-2.43a4.06 4.06 0 0 0 3.22 1.86 2.66 2.66 0 0 0 2.56-2.86 2.8 2.8 0 0 0 -2.78-2.84 3.55 3.55 0 0 0 -2.3.93h-.43l1.53-7.51h6.22v2.42h-4.25zm-5.61 9.68h-9.63l3.63-4.58c1-1.26 3.12-3.74 3.12-5.35 0-1-.67-2.32-1.85-2.32s-1.82 1.38-1.76 2.45h-2.95c.18-2.75 1.76-4.87 4.7-4.87a4.55 4.55 0 0 1 4.64 4.61c0 2.1-1.17 3.67-2.48 5.19l-2.11 2.45h4.69zm-10.74 6.19a2.91 2.91 0 0 1 2.61 1.57l-.9.57a1.85 1.85 0 0 0 -1.76-1.09 1.6 1.6 0 0 0 -1.67 1.56c0 .87.9 1.27 1.58 1.58l.67.3c1.31.57 2.42 1.23 2.42 2.84a3.19 3.19 0 0 1 -6.32.5l1.1-.3a2.08 2.08 0 0 0 2 1.87 2 2 0 0 0 2.08-2c0-1.18-.93-1.58-1.86-2l-.62-.26c-1.18-.54-2.19-1.14-2.19-2.59a2.65 2.65 0 0 1 2.82-2.57m-.34-11.17h-4.58v-2.16h4.62zm-5.67 11.37h1.13v10.09h-1.13zm-4.65 5.56 3.22 4.53h-1.38l-3.05-4.43h-.29v4.43h-1.12v-10.09h1.46c1.91 0 3.69.51 3.69 2.78a2.63 2.63 0 0 1 -2.53 2.78m1.28-11.93h-2.79v-11.87h-1.84v-2.42h4.66zm-5 16.46h-1.24l-1.19-2.87h-4.31l-1.22 2.87h-1.23l4.66-10.57zm-3.3-16.46h-9.63l3.63-4.58c1-1.26 3.11-3.74 3.11-5.35 0-1-.66-2.32-1.84-2.32s-1.82 1.38-1.76 2.45h-3c.23-2.75 1.81-4.87 4.75-4.87a4.55 4.55 0 0 1 4.64 4.61c0 2.1-1.17 3.67-2.48 5.19l-2.11 2.45h4.69zm-10.61 6.37h1.65a4.27 4.27 0 0 1 2.51.53 2.77 2.77 0 0 1 1.12 2.3 2.82 2.82 0 0 1 -1 2.17 3.64 3.64 0 0 1 -2.39.67h-.77v4.42h-1.12zm37.14-.43 7.87 8.24v-7.81h1.12v10.54l-7.85-8.23v7.78h-1.14zm22.63.43h1.51c1.91 0 3.69.51 3.69 2.78a2.63 2.63 0 0 1 -2.53 2.78l3.21 4.53h-1.37l-3.11-4.43h-.28v4.43h-1.12zm7.26 0h1.89a5.53 5.53 0 0 1 3.94 1.21 4.92 4.92 0 0 1 1.67 3.85 4.86 4.86 0 0 1 -1.64 3.76 5.38 5.38 0 0 1 -4 1.27h-1.86zm12.26 0h1.21l2.88 7.69 2.9-7.69h1.2l-4.1 10.69zm9.31 0h1.12v10.09h-1.12zm8.19 0h1.13v9.05h2.78v1h-3.91zm12.17 0h1.66a4.22 4.22 0 0 1 2.5.53 2.78 2.78 0 0 1 1.14 2.3 2.86 2.86 0 0 1 -1 2.17 3.68 3.68 0 0 1 -2.4.67h-.82v4.42h-1.12zm20.21 0h6v1h-2.46v9h-1.12v-9h-2.44zm17.45 6.37h2.75v1h-2.75zm7.9-6.37h1.66a4.22 4.22 0 0 1 2.5.53 2.78 2.78 0 0 1 1.14 2.3 2.82 2.82 0 0 1 -1 2.17 3.66 3.66 0 0 1 -2.4.67h-.82v4.42h-1.12zm4.76 10.09 4.65-10.57 4.54 10.57h-1.25l-1.19-2.87h-4.31l-1.21 2.87zm17.57-10.09h1.12v10.09h-1.12zm2.69 7.65 1.1-.3a2.07 2.07 0 0 0 2 1.87 2 2 0 0 0 2.07-2c0-1.18-.92-1.58-1.86-2l-.61-.26c-1.18-.54-2.2-1.14-2.2-2.59a2.66 2.66 0 0 1 2.83-2.57 2.91 2.91 0 0 1 2.61 1.57l-.9.57a1.85 1.85 0 0 0 -1.74-1.09 1.59 1.59 0 0 0 -1.67 1.56c0 .87.89 1.27 1.58 1.58l.66.3c1.32.57 2.43 1.23 2.43 2.84a3.19 3.19 0 0 1 -6.32.5m14.65-34.87h-199.89v43.75h199.89z" fill="#191817"/></g></svg>