<svg viewBox="0 0 88.02 58.56" xmlns="http://www.w3.org/2000/svg"><path d="m44 0a6.06 6.06 0 0 0 -4 1.5 5.89 5.89 0 0 0 -1.94 4.44v1a42.16 42.16 0 0 0 -36 39.5 2.22 2.22 0 0 0 -2.06 2.35 2.35 2.35 0 0 0 .36 1.09l5.13 7.68a2.2 2.2 0 0 0 1.87 1h73.35a2.21 2.21 0 0 0 1.84-1l5.1-7.68a2.23 2.23 0 0 0 -.65-3.08 2.16 2.16 0 0 0 -1-.36 42.18 42.18 0 0 0 -36-39.5v-1a5.87 5.87 0 0 0 -1.92-4.44 6.14 6.14 0 0 0 -4.08-1.5zm0 4.44a1.83 1.83 0 0 1 1.13.4 1.21 1.21 0 0 1 .43 1.1v.62c-.52 0-1 0-1.56 0s-1.05 0-1.56 0v-.62a1.19 1.19 0 0 1 .44-1.1 1.77 1.77 0 0 1 1.12-.4zm0 9.12h.31a3.25 3.25 0 0 1 .44 0l1.56.22a2.22 2.22 0 0 1 -.31 4.47 2.9 2.9 0 0 1 -.41-.06c-.38-.06-1-.09-1.59-.19a2.22 2.22 0 0 1 0-4.44zm8.53 1.78h.12a2.38 2.38 0 0 1 .88.13 35.9 35.9 0 0 1 22.52 24.09 2.22 2.22 0 1 1 -4.14 1.59 2.62 2.62 0 0 1 -.11-.4 31.49 31.49 0 0 0 -19.8-21.09 2.23 2.23 0 0 1 .47-4.32zm-46.17 35.53h75.32l-2.13 3.25h-71z"/></svg>