<svg viewBox="0 0 78.9 90" xmlns="http://www.w3.org/2000/svg"><path d="m38.9 80.2a18 18 0 0 1 -10.9-3.1 1.5 1.5 0 0 1 1.8-2.4 15.07 15.07 0 0 0 9.1 2.5c3.7 0 6.7-.8 9-2.5a1.5 1.5 0 1 1 1.8 2.4c-2.8 2.1-6.4 3.1-10.8 3.1z"/><path d="m50.1 80.4a1.46 1.46 0 0 0 -2.1-.3c-2.7 1.9-6.1 2.2-9 2.2-4.2 0-6.9-.7-9.1-2.3a1.5 1.5 0 0 0 -1.8 2.4 14.27 14.27 0 0 0 4.9 2.2 6 6 0 0 0 12 0 13 13 0 0 0 4.8-2.2 1.43 1.43 0 0 0 .3-2zm-11.2 6.6a3.06 3.06 0 0 1 -2.8-1.9 26.2 26.2 0 0 0 2.8.1 27.15 27.15 0 0 0 2.8-.1 3 3 0 0 1 -2.8 1.9z"/><path d="m38.9 15.3c-13.8 0-23.7 10.2-23.7 24.3 0 8.2 3.7 13.5 6.9 18.1 2.5 3.6 4.6 6.7 4.6 10.4 0 4.9 8.1 7 12.2 7s12.2-2.1 12.2-7c0-3.8 2.2-6.9 4.6-10.4 3.2-4.6 6.9-9.9 6.9-18.1 0-14-9.9-24.3-23.7-24.3zm-2.4 8.7a15 15 0 0 0 -9.6 6 1.43 1.43 0 0 1 -1.2.6 1.4 1.4 0 0 1 -.9-.3 1.46 1.46 0 0 1 -.2-2.1c3.2-4 6.8-6.3 11.4-7.1a1.48 1.48 0 0 1 1.7 1.2 1.39 1.39 0 0 1 -1.2 1.7z"/><path d="m41.4 2a2 2 0 0 0 -.6-1.4 1.93 1.93 0 0 0 -2.8 0 2 2 0 0 0 -.6 1.4 2 2 0 0 0 .6 1.4 2.38 2.38 0 0 0 1.1.6 2 2 0 0 0 -1.7 2 2 2 0 0 0 1.8 2 1.66 1.66 0 0 0 -1.2.5 2 2 0 1 0 3.4 1.4 1.82 1.82 0 0 0 -.6-1.4 1.85 1.85 0 0 0 -1.2-.5 2 2 0 0 0 1.8-2 2 2 0 0 0 -1.7-2 2.38 2.38 0 0 0 1.1-.6 2 2 0 0 0 .6-1.4z"/><path d="m22.2 12.9a2.1 2.1 0 0 0 .4-2.6 2 2 0 0 0 -2.5-.7.1.1 0 0 0 .1-.1 1.93 1.93 0 0 0 0-2.8 2.13 2.13 0 0 0 -2.8 0 2 2 0 0 0 1.4 3.4 1.88 1.88 0 0 0 .8-.2 2 2 0 0 0 1.4 3.5 2.92 2.92 0 0 0 .9-.2l-.1.1a2 2 0 1 0 2.8 0 2.35 2.35 0 0 0 -2.4-.4z"/><path d="m4.8 26.5a2 2 0 0 0 1.4-.6l.3-.3a2 2 0 0 0 1.1 2.3 2.35 2.35 0 0 0 .8.2 2.06 2.06 0 0 0 1.7-1 1.27 1.27 0 0 0 -.1.6 1.82 1.82 0 0 0 .6 1.4 2 2 0 1 0 2.8-2.8 1.93 1.93 0 0 0 -2.8 0l-.3.3a2 2 0 0 0 -3.6-1.6c0-.2.1-.3.1-.5a2 2 0 0 0 -.6-1.4 1.93 1.93 0 0 0 -2.8 0 2 2 0 0 0 1.4 3.4z"/><path d="m11.2 46a1.93 1.93 0 0 0 0-2.8 2.13 2.13 0 0 0 -2.8 0 2 2 0 0 0 -.6 1.4 1.91 1.91 0 0 0 -2.2-1.3 2 2 0 0 0 -1.7 2 2.18 2.18 0 0 0 -.5-.8 1.93 1.93 0 0 0 -2.8 0 1.93 1.93 0 0 0 0 2.8 2 2 0 0 0 1.4.6 2 2 0 0 0 1.4-.6 1.82 1.82 0 0 0 .6-1.4 2 2 0 0 0 1.9 1.3h.3a2 2 0 0 0 1.7-2 2.18 2.18 0 0 0 .5.8 2 2 0 0 0 1.4.6 1.82 1.82 0 0 0 1.4-.6z"/><path d="m15.8 58.6a2 2 0 0 0 -.6 1.4 2 2 0 0 0 .3 1.1 2 2 0 0 0 -2.6.1 1.89 1.89 0 0 0 -.3 2.6 2.11 2.11 0 0 0 -2.7.1 2 2 0 1 0 3.4 1.4 2 2 0 0 0 -.3-1.1 1.94 1.94 0 0 0 2.6 0 2 2 0 0 0 .3-2.6 2.11 2.11 0 0 0 1.3.5 2 2 0 0 0 1.4-3.4 2 2 0 0 0 -2.8-.1z"/><path d="m59.2 9.9a2.35 2.35 0 0 0 .8.2 2 2 0 0 0 1.4-3.4 1.93 1.93 0 0 0 -2.8 0 1.93 1.93 0 0 0 0 2.8.1.1 0 0 1 .1.1 2 2 0 0 0 -2.5.7 1.9 1.9 0 0 0 .4 2.6 2.18 2.18 0 0 0 -2.3.4 2 2 0 1 0 2.8 0l-.1-.1a2.92 2.92 0 0 0 .9.2 2 2 0 0 0 1.7-.9 2 2 0 0 0 -.4-2.6z"/><path d="m66.9 29.6a2.05 2.05 0 0 0 2-2 1.27 1.27 0 0 0 -.1-.6 2.06 2.06 0 0 0 1.7 1 1.2 1.2 0 0 0 .8-.2 1.91 1.91 0 0 0 1.1-2.3c.1.1.2.2.2.3a2 2 0 1 0 2.8-2.8 2.13 2.13 0 0 0 -2.8 0 2 2 0 0 0 -.6 1.4.75.75 0 0 0 .1.5 2.05 2.05 0 0 0 -2.5-.8 1.91 1.91 0 0 0 -1.1 2.3c-.1-.1-.2-.2-.2-.3a1.93 1.93 0 0 0 -2.8 0 1.93 1.93 0 0 0 0 2.8 1.62 1.62 0 0 0 1.4.7z"/><path d="m78.3 44.4a1.93 1.93 0 0 0 -2.8 0 2.18 2.18 0 0 0 -.5.8 2 2 0 0 0 -1.7-2 1.89 1.89 0 0 0 -2.2 1.4 2 2 0 0 0 -.6-1.4 2.13 2.13 0 0 0 -2.8 0 2 2 0 1 0 2.8 2.8 2.18 2.18 0 0 0 .5-.8 2 2 0 0 0 1.7 2h.3a2 2 0 0 0 1.9-1.3 2 2 0 0 0 4 0 2 2 0 0 0 -.6-1.5z"/><path d="m66.4 63.7a1.89 1.89 0 0 0 -.3-2.6 2 2 0 0 0 -2.6-.1 2 2 0 0 0 .3-1.1 2 2 0 0 0 -.6-1.4 2.13 2.13 0 0 0 -2.8 0 2 2 0 0 0 1.4 3.4 2.11 2.11 0 0 0 1.3-.5 2.12 2.12 0 0 0 .3 2.6 1.94 1.94 0 0 0 2.6 0 2 2 0 0 0 -.3 1.1 2 2 0 1 0 3.4-1.4 2.25 2.25 0 0 0 -2.7 0z"/></svg>