<svg viewBox="0 0 191.11 80.63" xmlns="http://www.w3.org/2000/svg" xmlns:xlink="http://www.w3.org/1999/xlink"><clipPath id="a"><path d="m0 0h191.11v80.63h-191.11z"/></clipPath><g clip-path="url(#a)" fill="#191817"><path d="m148 42.26c0 .88.06 1.72.15 2.53a25.13 25.13 0 0 1 -.15-2.53m43.11 14.74-.24-.63c-1.09-2.86-2.7-6.14-5.49-6.14a4.39 4.39 0 0 0 -1.23.19 35 35 0 0 1 -11.75 1.92c-9 0-13.68-3.21-13.69-9.29l-.19-40.65v-1.47l-.52-.15a12.26 12.26 0 0 0 -3.65-.57 10.26 10.26 0 0 0 -6.14 2l-.28.2v39.15-3.56h-16.6l-18.84-37-.12-.23-.23-.1a9.85 9.85 0 0 0 -3.55-.67c-4 0-7.43 2.64-9.86 7.63l-15.15 30.37h-18.45l-.13-36.18-.07-.92-.47-.15a12.34 12.34 0 0 0 -3.66-.57 10.2 10.2 0 0 0 -6.13 2l-.29.2v35.69h-10.3c-1.41-6.49-6.62-9.85-17.95-12.07l-.3-.06c-10.2-2-16.36-3.22-16.36-9.67 0-7.73 10-7.73 13.22-7.73a45.25 45.25 0 0 1 9.31.89c4.09 1 5.75-2.74 7-6.21l.25-.71-.73-.19a59.24 59.24 0 0 0 -14.78-2c-15.32.05-23.74 6-23.74 16.81 0 5.37 2.09 9.33 6.38 12.12 3.94 2.52 9.37 3.73 15.67 5.13l.86.18c6.79 1.5 11.69 2.58 11.69 8.53 0 2.79-1.41 9.29-14.49 9.3a35.36 35.36 0 0 1 -11.87-2 4.24 4.24 0 0 0 -1.11-.15c-2.78 0-4.33 3.11-5.49 6.14l-.24.64.63.25a51.74 51.74 0 0 0 19 3.2c9.51 0 20.61-2.51 23-13.59v.18h10.37v11.74h10.8l-.06-16.09v4.39h13.9l2.32-4.65-8 16.11h10.04l23.19-47.5 12.85 26.17.42.79h-19.35l-4 8-.31 1h28l5.61 11.42h12l-5.81-11.37h12.52c0-.06 0-.12 0-.18 2.43 11 13.52 13.55 23 13.55a51.89 51.89 0 0 0 19-3.23z"/><path d="m183.19 79.78a8.42 8.42 0 0 0 3.59.85c2 0 4-1.1 4-3.32 0-1.58-1-2.35-2.47-2.67l-.77-.18c-.26-.06-.68-.11-.68-.45s.44-.5.73-.5a3.5 3.5 0 0 1 2 .71l.91-2.39a5.5 5.5 0 0 0 -2.95-.82c-2 0-4 1.24-4 3.45a2.57 2.57 0 0 0 2.45 2.48l.68.12c.31.06.76.1.76.52s-.54.56-.87.56a3.53 3.53 0 0 1 -2.11-.86l-.18-.13zm-9.06 0a8.41 8.41 0 0 0 3.58.85c2 0 4-1.1 4-3.32 0-1.58-1-2.35-2.47-2.67l-.77-.18c-.26-.06-.68-.11-.68-.45s.43-.5.73-.5a3.53 3.53 0 0 1 2 .71l.91-2.39a5.51 5.51 0 0 0 -3-.82c-2 0-4 1.24-4 3.45a2.57 2.57 0 0 0 2.44 2.48l.68.12c.31.06.75.1.75.52s-.53.56-.86.56a3.59 3.59 0 0 1 -2.12-.86l-.17-.13zm-8.15.71h6.37v-2.55h-3v-.94h2.65v-2.4h-2.61v-.89h2.86v-2.55h-6.25zm-11.65 0h3.24v-3a11 11 0 0 0 -.21-1.87h.1l3 4.9h3.24v-9.36h-3.24v2.84a13.58 13.58 0 0 0 .29 2.37h-.1l-3-5.17h-3.25zm-5.77 0h3.38v-9.33h-3.38zm-9.56-.71a8.49 8.49 0 0 0 3.59.85c2 0 4-1.1 4-3.32 0-1.58-1-2.35-2.47-2.67l-.77-.18c-.25-.06-.68-.11-.68-.45s.44-.5.73-.5a3.5 3.5 0 0 1 2 .71l.91-2.39a5.5 5.5 0 0 0 -3-.82c-2 0-4 1.24-4 3.45a2.57 2.57 0 0 0 2.43 2.48l.68.12c.31.06.76.1.76.52s-.54.56-.87.56a3.53 3.53 0 0 1 -2.11-.86l-.18-.13zm-5.26-8.62v5.2c0 .73 0 1.37-.93 1.37s-.93-.64-.93-1.37v-5.2h-3.39v5.52c0 2.72 1.71 3.95 4.32 3.95s4.31-1.23 4.31-3.95v-5.52zm-12 5.54h.26c.55 0 1.42 0 1.42.78s-.81.78-1.37.78h-.38zm0-2v-1.29h.23c.5 0 1.13 0 1.13.64s-.56.69-1 .69zm-3.14 5.75h4.61c1.64 0 3.42-.66 3.42-2.58a2.26 2.26 0 0 0 -1.66-2.22v-.08a1.87 1.87 0 0 0 1.22-1.87c0-2.14-1.84-2.58-3.65-2.58h-3.94zm-14.26-6.41h.21c1.24 0 2 .56 2 1.87s-.86 1.74-2 1.74h-.21zm-3.38 6.41h4.29a4.37 4.37 0 0 0 4.61-4.45c0-3.42-2.4-4.8-5.53-4.8h-3.44zm-7.25-6.41a1.72 1.72 0 0 1 1.74 1.82 1.75 1.75 0 1 1 -3.49 0 1.73 1.73 0 0 1 1.75-1.82m0-3.07a4.86 4.86 0 0 0 -5.16 4.84c0 3 2.31 4.78 5.16 4.78s5.15-1.79 5.15-4.78a4.85 4.85 0 0 0 -5.22-4.81m-12 3.07a1.73 1.73 0 0 1 1.75 1.82 1.75 1.75 0 1 1 -3.49 0 1.72 1.72 0 0 1 1.74-1.82m0-3.07a4.85 4.85 0 0 0 -5.15 4.84c0 3 2.31 4.78 5.15 4.78s5.16-1.79 5.16-4.78a4.85 4.85 0 0 0 -5.21-4.84m-13.13 9.49h3.41v-3.27h2.49v-2.42h-2.49v-1h2.83v-2.64h-6.24zm-15.23 0h6.36v-2.55h-3v-.94h2.61v-2.4h-2.56v-.89h2.85v-2.55h-6.26zm-6.87-6.78h.26c.58 0 1.09.09 1.09.8s-.56.78-1.11.78h-.24zm-3.31 6.78h3.31v-3h.06l1.49 3h3.9l-2-3a2.47 2.47 0 0 0 -.57-.56v-.07a2.2 2.2 0 0 0 1.76-2.46c0-2.35-1.78-3.24-3.88-3.24h-4.07zm-5.83 0h3.39v-9.33h-3.39zm-6.63-6.78h.33c.55 0 1.25 0 1.25.77s-.65.85-1.24.85h-.34zm-3.26 6.78h3.26v-2.81h1.74a2.86 2.86 0 0 0 3.07-3.09c0-2.31-1.6-3.43-3.78-3.43h-4.29zm-9.55-.71a8.42 8.42 0 0 0 3.59.85c2 0 4-1.1 4-3.32 0-1.58-1-2.35-2.47-2.67l-.77-.18c-.26-.06-.68-.11-.68-.45s.44-.5.73-.5a3.5 3.5 0 0 1 2 .71l.91-2.39a5.5 5.5 0 0 0 -3-.82c-2 0-4 1.24-4 3.45a2.58 2.58 0 0 0 2.44 2.48l.68.12c.31.06.76.1.76.52s-.54.56-.87.56a3.53 3.53 0 0 1 -2.1-.86l-.18-.13zm-11.21.71h3.24v-3a11 11 0 0 0 -.21-1.87h.09l3 4.9h3.23v-9.36h-3.24v2.84a13.57 13.57 0 0 0 .32 2.33h-.1l-3-5.17h-3.33zm-5.78 0h3.39v-9.33h-3.39z"/></g></svg>