<svg viewBox="0 0 86.77 86.67" xmlns="http://www.w3.org/2000/svg"><path d="m85.5 79.7-26.7-24.6a33.12 33.12 0 0 0 8-21.7 33.4 33.4 0 1 0 -33.4 33.4 32.69 32.69 0 0 0 21.7-8.1l24.6 26.7.2.2a4.2 4.2 0 0 0 5.8-.2 4.08 4.08 0 0 0 -.2-5.7zm-80.5-46.3a28.4 28.4 0 1 1 28.4 28.5 28.44 28.44 0 0 1 -28.4-28.5z"/><path d="m34.4 10.3h-2.3c-.3 0-.6.1-.9.1a19.19 19.19 0 0 0 -2.2.3c-.4.1-.8.2-1.3.3s-.9.3-1.3.4c-.9.3-1.8.7-2.8 1.1s-1.9 1-2.8 1.6a17.09 17.09 0 0 0 -2.6 2.1 27.25 27.25 0 0 0 -2.3 2.5 26.1 26.1 0 0 0 -1.9 2.7 24.37 24.37 0 0 0 -1.4 2.8 11.22 11.22 0 0 0 -.5 1.3c-.1.4-.3.9-.4 1.3a21 21 0 0 0 -.6 2.4c-.1.4-.1.7-.2 1s-.1.5-.1.8c-.1.9-.1 1.4-.1 1.4v.2a2.5 2.5 0 0 0 5 0v-2.2c0-.2.1-.5.1-.7a16.76 16.76 0 0 1 .3-1.8c.1-.3.1-.7.2-1.1s.2-.7.3-1.1c.2-.8.6-1.5.9-2.4a14.92 14.92 0 0 1 1.4-2.4c.5-.8 1.1-1.5 1.7-2.3a19.85 19.85 0 0 1 2.1-2 18.82 18.82 0 0 1 2.3-1.6 25.32 25.32 0 0 1 2.3-1.2 11.73 11.73 0 0 0 1.1-.5l1.1-.3a19.45 19.45 0 0 1 2-.5c.3-.1.6-.1.8-.2a1.48 1.48 0 0 0 .7-.1c.9-.1 1.4-.1 1.4-.1h.1a1.06 1.06 0 0 0 .9-1 1 1 0 0 0 -1-.8z"/></svg>