<svg xmlns="http://www.w3.org/2000/svg" viewBox="0 0 270 223" enable-background="new 0 0 270 223"><g fill="#010202"><path d="m244.9 73.3c-8.5 0-15.3 6.9-15.3 15.3 0 8.4 6.9 15.3 15.3 15.3 8.4 0 15.3-6.9 15.3-15.3 0-8.5-6.9-15.3-15.3-15.3"/><path d="m25.1 73.3c-8.5 0-15.3 6.9-15.3 15.3 0 8.4 6.9 15.3 15.3 15.3 8.4 0 15.3-6.9 15.3-15.3 0-8.5-6.8-15.3-15.3-15.3"/><path d="m199.4 45.5c-12.6 0-22.7 10.2-22.7 22.8 0 12.5 10.2 22.7 22.7 22.7 12.6 0 22.8-10.2 22.8-22.7 0-12.6-10.2-22.8-22.8-22.8"/><path d="m270 183.8h-25.9v-47.7c0-8.2-2.4-15.8-6.3-22.4 2.3-.7 4.6-1.1 7.1-1.1 13.8 0 25.1 11.3 25.1 25.1v46.1"/><path d="m70.6 45.5c-12.6 0-22.8 10.2-22.8 22.8 0 12.5 10.2 22.7 22.8 22.7 12.5 0 22.7-10.2 22.7-22.7 0-12.6-10.2-22.8-22.7-22.8"/><path d="m25.1 112.5c2.5 0 4.8.5 7.1 1.1-3.9 6.6-6.3 14.2-6.3 22.4v47.7h-25.9v-46.1c0-13.8 11.3-25.1 25.1-25.1"/><path d="M135,0c-18.5,0-33.6,15.1-33.6,33.6c0,18.6,15.1,33.7,33.6,33.7s33.7-15.1,33.7-33.7
	C168.6,15.1,153.5,0,135,0z"/><path d="m235.8 201.6h-39.7v-72.6c0-10-2.6-19.3-6.9-27.6 3.3-1 6.7-1.6 10.2-1.6 20 0 36.4 16.3 36.4 36.4v65.4"/><path d="m73.9 129v72.6h-39.7v-65.5c0-20 16.3-36.4 36.4-36.4 3.6 0 7 .7 10.2 1.6-4.2 8.4-6.9 17.7-6.9 27.7"/><path d="m82.2 222.6h105.5v-93.6c0-29.1-23.7-52.7-52.7-52.7-29.1 0-52.7 23.7-52.7 52.7v93.6z"/></g></svg>