<svg xmlns="http://www.w3.org/2000/svg" viewBox="0 0 308.26993 472.33569" enable-background="new 0 0 308.26993 472.33569"><g fill="#f7e523"><path d="m47.26 336.09c-13.776-7.577-31.08-2.546-38.66 11.23-1.952 3.55-3.036 7.332-3.378 11.126l-.031-.006-6 65.09 51.738-39.945-.018-.018c3.02-2.319 5.63-5.263 7.583-8.813 7.577-13.782 2.552-31.09-11.23-38.666"/><path d="m136.05 384.9c-13.776-7.577-31.08-2.546-38.66 11.23-1.952 3.55-3.036 7.332-3.378 11.126l-.031-.006-5.998 65.09 51.738-39.945-.018-.018c3.02-2.319 5.63-5.263 7.583-8.813 7.57-13.782 2.546-31.09-11.236-38.66"/><path d="m246.48 247.7c8.354-15.196 2.864-34.25-12.234-42.711l64.67-117.63c15.783-28.715 10.93-63.21-9.596-86.41-30.6-4.896-62.32 9.492-78.11 38.2l-64.68 117.66c-.214-.129-.416-.269-.636-.392-15.269-8.391-34.449-2.821-42.84 12.448l-72.66 132.17 28.3 15.557 27.424 15.08 32.418 17.821 27.864 15.318 27.864 15.318 72.66-132.18-.441-.245"/></g></svg>