<?xml version="1.0" encoding="utf-8"?>
<!-- Generator: Adobe Illustrator 18.1.1, SVG Export Plug-In . SVG Version: 6.00 Build 0)  -->
<svg version="1.1" id="Calque_1" xmlns="http://www.w3.org/2000/svg" xmlns:xlink="http://www.w3.org/1999/xlink" x="0px" y="0px"
	 width="270px" height="223px" viewBox="0 0 270 223" enable-background="new 0 0 270 223" xml:space="preserve">
<path fill="#010202" d="M244.9,73.3c-8.5,0-15.3,6.9-15.3,15.3c0,8.4,6.9,15.3,15.3,15.3c8.4,0,15.3-6.9,15.3-15.3
	C260.2,80.1,253.3,73.3,244.9,73.3z"/>
<path fill="#010202" d="M25.1,73.3c-8.5,0-15.3,6.9-15.3,15.3c0,8.4,6.9,15.3,15.3,15.3c8.4,0,15.3-6.9,15.3-15.3
	C40.4,80.1,33.6,73.3,25.1,73.3z"/>
<path fill="#010202" d="M199.4,45.5c-12.6,0-22.7,10.2-22.7,22.8c0,12.5,10.2,22.7,22.7,22.7c12.6,0,22.8-10.2,22.8-22.7
	C222.2,55.7,212,45.5,199.4,45.5z"/>
<path fill="#010202" d="M270,183.8h-25.9v-47.7c0-8.2-2.4-15.8-6.3-22.4c2.3-0.7,4.6-1.1,7.1-1.1c13.8,0,25.1,11.3,25.1,25.1V183.8z
	"/>
<path fill="#010202" d="M70.6,45.5c-12.6,0-22.8,10.2-22.8,22.8C47.8,80.8,58,91,70.6,91c12.5,0,22.7-10.2,22.7-22.7
	C93.3,55.7,83.1,45.5,70.6,45.5z"/>
<path fill="#010202" d="M25.1,112.5c2.5,0,4.8,0.5,7.1,1.1c-3.9,6.6-6.3,14.2-6.3,22.4v47.7H0v-46.1C0,123.8,11.3,112.5,25.1,112.5z
	"/>
<path fill="#010202" d="M135,0c-18.5,0-33.6,15.1-33.6,33.6c0,18.6,15.1,33.7,33.6,33.7s33.7-15.1,33.7-33.7
	C168.6,15.1,153.5,0,135,0z"/>
<path fill="#010202" d="M235.8,201.6h-39.7V129c0-10-2.6-19.3-6.9-27.6c3.3-1,6.7-1.6,10.2-1.6c20,0,36.4,16.3,36.4,36.4V201.6z"/>
<path fill="#010202" d="M73.9,129v72.6H34.2v-65.5c0-20,16.3-36.4,36.4-36.4c3.6,0,7,0.7,10.2,1.6C76.6,109.7,73.9,119,73.9,129z"/>
<path fill="#010202" d="M82.2,222.6h105.5V129c0-29.1-23.7-52.7-52.7-52.7c-29.1,0-52.7,23.7-52.7,52.7V222.6z"/>
</svg>
