<svg xmlns="http://www.w3.org/2000/svg" viewBox="0 0 871.94714 739.57849" enable-background="new 0 0 871.94714 739.57849"><g fill="#f7e523"><path d="m457.59 517.23c19.562-20.636 42.3-36.32 67.958-47.48-46.29-62.914-88.993-111.86-209.42-111.86-336.72 0-315.88 381.7-315.88 381.7h383.2c-.697-17.09-2.597-141.37 74.14-222.36"/><path d="m302.31 306.04c84.06 0 152.09-67.978 152.09-152.09 0-83.998-68.03-152.18-152.09-152.18s-152.27 68.18-152.27 152.18c0 84.11 68.22 152.09 152.27 152.09"/><path d="m651.88 442.18c56.804 0 102.8-45.929 102.8-102.73s-45.999-102.89-102.8-102.89c-56.894 0-102.89 46.09-102.89 102.89s45.999 102.73 102.89 102.73"/><path d="m661.91 485.96c-223.65 0-209.71 253.62-209.71 253.62h419.58c0 .01 13.721-253.62-209.88-253.62"/></g></svg>