<svg xmlns="http://www.w3.org/2000/svg" viewBox="0 214.19193 612 363.61197" enable-background="new 0 214.19193 612 363.61197"><g fill="#010101"><path d="m468.45 242.57c0 0-9.388 10.373-41.499 4.945l-121.03-22.21c0 0-15.838-.906-31.16 6.01l-67.2 23.494c0 0-36.02 28.04-66.65 60.64 0 0-10.349 20.979 28.678 18.513 0 0 44.951-11.86 60.26-31.616 0 0 43.2-16.983 55.32-12.846l166.49 111.64c0 0 30.13 29.645 32.589 40.514 0 0 29.633-26.683 40.502-38.537l28.16-13.831c.006-.006-48.4-136.84-84.46-146.71"/><path d="m91.56 452.16c0 0-12.35 31.12 5.435 40.502 0 0 12.35 8.892 28.647-.979l5.93-10.379c.006 0-31.616-27.668-40.01-29.14"/><path d="m166.1 520.29l10.07-23.66c0 0 3.935-19.492-15.318-25.05 0 0-16.628-5.575-19.253 3.237l-12.705 20.887c0 0-3.06 14.376.441 19.02 0 0 7.442 12.521 15.312 13.917.006.006 13.574 3.25 21.457-8.354"/><path d="m209.32 540.9l10.122-24.11c0 0 3.96-19.853-15.404-25.514 0 0-16.726-5.685-19.363 3.299l-12.766 21.267c0 0-3.078 14.657.435 19.376 0 0 7.485 12.754 15.404 14.186 0 0 13.647 3.299 21.573-8.507"/><path d="m271.68 569.41c0 0-21.291-15.845-23.18-19 0 0-11.359-18.996-25.08-13.12 0 0-19.871 6.787-11.83 23.08l18.929 16.285c-.006.006 11.352 5.428 41.16-7.24"/><path d="m122.01 272.25c0 0 19.504 7.607 25.685 7.13l21.242 1.763c0 0-15.404 14.871-17.778 16.304l-18.776 18.77c0 0-3.55 21.469 20.233 25.27 0 0 28.537 2.852 73.72-30.441 0 0 27.368-11.61 39.945-13.794l16.14 1.414 163.18 108.93c0 0 29.957 27.11 31.383 40.9 0 0 8.07 22.834-10.936 37.576 0 0-8.097 12.368-31.86-1.42l-75.16-52.32c0 0 53.758 39.48 56.6 62.31 0 0 4.272 9.51-5.71 28.531 0 0-9.03 16.634-34.731 10.936l-51.35-45.655-3.727 1.273c0 0 47.601 47.33 48.07 49.712 0 0 11.31 26.05-32.925 22.246l-45.2-34.718-17.595-7.607-2.375 1.432c0 0 22.509 12.687 50.569 38.855 0 0-1.095 16.793-33.923 12.987l-36.14-25.685c0 0-5.887-21.671-26.818-18.819 0 0 14.412-29.584-8.892-41 0 0-17.09-8.182-30.398-.104 0 0-.949-23.311-22.827-25.673 0 0-19.975-4.761-24.737 13.782l-54.42-40.37c0 0 32.858-170.6 39.516-162.51"/><path d="m111.41 264.09c0 0-40.27 143.34-38.782 171l-72.63-12.674 54.33-177.06 57.08 18.733"/><path d="m474.66 237.41c0 0 30.13 12.35 57.809 76.07 0 0 30.13 74.59 30.13 82.5l49.39-14.822c0 0-42.98-128.93-85.46-166.96l-51.873 23.22"/></g></svg>