<?xml version="1.0" encoding="utf-8"?>
<!-- Generator: Adobe Illustrator 18.1.1, SVG Export Plug-In . SVG Version: 6.00 Build 0)  -->
<svg version="1.1" id="Calque_1" xmlns="http://www.w3.org/2000/svg" xmlns:xlink="http://www.w3.org/1999/xlink" x="0px" y="0px"
	 width="94px" height="214px" viewBox="0 0 94 214" enable-background="new 0 0 94 214" xml:space="preserve">
<ellipse fill="#010202" cx="69.5" cy="24.4" rx="24.5" ry="24.4"/>
<path fill="#010202" d="M81.5,200.9H49.7V58.7l10.4-7.5c-4.1-1.3-7.7-3.6-11-6.8c-3.3-3.2-5.4-7.1-6.8-11.1L14,70.2l3.5,3.5
	c-1.2,1.8-2.4,3.6-3.7,5.5C7.3,88.6-0.1,99.3,0,111.6c0.1,9.9,5.7,19,11,27.7c2.4,3.9,4.7,7.6,6.4,11.3c2.9,6.1,4.4,11.3,2.5,16.5
	c-1.4,3.7-2.7,5.8-4.4,8.3c-1,1.4-2,3-3.2,5.1c-4.5,7.8,3.8,13.9,9.9,18.2c0.9,0.6,1.8,0,2.6,2.2h-16c-3.6,0-6.5,2.9-6.5,6.5
	c0,3.6,2.9,6.5,6.5,6.5h72.8c3.6,0,6.5-2.9,6.5-6.5C88,203.8,85.1,200.9,81.5,200.9z M31.2,200.9l0-0.3c-1.6-1.8-4.1-3.7-6.7-5.5
	c-6.7-4.7-10.9-8.2-8.6-12.3c1.1-1.9,2.1-3.4,3-4.9c1.7-2.6,3.4-5,4.9-9.2c2.6-7,0.3-13.7-2.6-19.8c-1.8-3.9-4.1-7.7-6.6-11.7
	c-5.1-8.2-10.3-16.7-10.4-25.5c-0.1-11,6.6-20.6,13.1-30c1.1-1.6,2.2-3.2,3.3-4.8l2.2,2.7l13.8-10.8v132.2H31.2z"/>
</svg>
