<svg xmlns="http://www.w3.org/2000/svg" viewBox="0 0 748.08691 865.63361" enable-background="new 0 0 748.08691 865.63361"><g transform="translate(0-952.36)"><path d="m0 1083.62v734.38h616.88v-553.97h-19.9v534.07h-577.08v-694.58h56.999v199.95c23.23-23.14 46.44-46.31 69.65-69.48h.02c23.21 23.16 46.42 46.33 69.65 69.48v-199.95h220.26v-19.9h-436.48"/><path d="m77.11 1354.38v19.9h462.66v-19.9h-462.66"/><path d="m77.11 1412.06v19.9h462.66v-19.9h-462.66"/><path d="m77.11 1469.74v19.9h462.66v-19.9h-462.66"/><path d="m77.11 1527.42v19.9h462.66v-19.9h-462.66"/><path d="m77.11 1585.1v19.901h462.66v-19.9h-462.66"/><path d="m77.11 1652.39v19.9h231.34v-19.9h-231.34"/><path d="m450.22 1708.77v19.9h89.55v-19.9h-89.55"/><path d="m606.95 952.37c-77.83 0-141.13 63.32-141.13 141.14 0 77.83 63.3 141.13 141.13 141.13s141.15-63.3 141.14-141.13c0-77.83-63.32-141.15-141.15-141.15l.005.005m0 19.9c67.07 0 121.25 54.17 121.25 121.25 0 67.08-54.17 121.23-121.24 121.23-67.07 0-121.23-54.15-121.23-121.23 0-67.07 54.15-121.25 121.23-121.24l-.005-.005"/><path d="m529.56 1104.06l35.18 35.18 14.07 14.07 105.54-105.54-14.07-14.07-91.46 91.46-35.18-35.18-14.07 14.07"/></g></svg>