<?xml version="1.0" encoding="utf-8"?>
<!-- Generator: Adobe Illustrator 19.0.0, SVG Export Plug-In . SVG Version: 6.00 Build 0)  -->
<svg version="1.1" id="Calque_1" xmlns="http://www.w3.org/2000/svg" xmlns:xlink="http://www.w3.org/1999/xlink" x="0px" y="0px"
	 viewBox="0 0 612 606.23505" style="enable-background:new 0 0 612 606.23505;" xml:space="preserve">
<style type="text/css">
	.st0{fill:#F7E523;}
</style>
<path class="st0" d="M403.50659,207.08864c47.20364,0,85.44748,38.23169,85.44748,85.42915
	c0,47.16687-38.24384,85.423-85.44748,85.423c-47.16684,0-85.37408-38.2623-85.37408-85.423
	C318.13251,245.32033,356.33975,207.08864,403.50659,207.08864z"/>
<path class="st0" d="M273.15665,606.23505v-92.70581h30.37363l-0.00616,92.70581h212.87805l0.03064-92.70581h27.46661v92.70581
	H610.742v-98.15869c0-56.72018-39.7984-112.32651-106.18204-112.32651l-191.49484-0.07956
	c-60.45946,0-107.25294,49.31503-107.25294,110.84543v99.71933H273.15665z"/>
<path class="st0" d="M210.94679,409.44644L210.94679,409.44644c-4.25345,0-8.17632-2.48474-9.99394-6.34634
	c-1.27301-2.65604-1.38918-5.63049-0.38548-8.3967c0.99753-2.82748,2.98044-5.03061,5.69156-6.30362
	c5.36116-2.54581,12.16043-0.06125,14.70029,5.30609c1.26685,2.65601,1.38319,5.63046,0.38548,8.3967
	c-0.99753,2.82129-2.9866,5.0246-5.69156,6.29742C214.15378,409.11588,212.60529,409.44644,210.94679,409.44644L210.94679,409.44644
	z M196.13649,377.95294h-0.0551c-4.25343,0-8.1763-2.49091-10.00009-6.29742c-2.60092-5.52029-0.22636-12.10535,5.30606-14.75537
	c5.36118-2.53986,12.20322,0,14.69414,5.31223c2.59494,5.51413,0.22038,12.0932-5.25098,14.69412
	C199.28819,377.61639,197.73988,377.95294,196.13649,377.95294L196.13649,377.95294z M181.21582,346.50839
	c-4.24728,0-8.17632-2.47244-10.00011-6.34039c-2.59494-5.53244-0.22038-12.11151,5.30608-14.70029
	c5.36116-2.53986,12.16043-0.06125,14.70029,5.25098c2.59496,5.51413,0.22038,12.0932-5.25098,14.69412
	C184.47791,346.12271,182.87431,346.50839,181.21582,346.50839L181.21582,346.50839z M166.35042,315.00873
	c-4.25343,0-8.17014-2.47858-10.00009-6.35254c-2.60092-5.47134-0.22038-12.0932,5.30608-14.70029
	c5.355-2.53983,12.15427-0.04892,14.69412,5.29993c2.59494,5.48349,0.22038,12.11148-5.29991,14.70029
	C169.61232,314.67816,168.00893,315.00873,166.35042,315.00873L166.35042,315.00873z"/>
<path class="st0" d="M270.12726,370.94543c-3.26804,0-6.30359-1.38919-8.40268-3.87393
	c-1.93396-2.22162-2.87024-5.08569-2.65601-8.01718c0.28146-2.98044,1.60339-5.63049,3.86777-7.57043
	c4.47363-3.81268,11.77496-3.20084,15.58762,1.27301c1.92783,2.20309,2.81516,5.08566,2.59497,8.01718
	c-0.2204,2.92532-1.60342,5.63644-3.81268,7.51532C275.26804,369.99683,272.72223,370.94543,270.12726,370.94543
	L270.12726,370.94543z M247.53212,344.47037c-3.26189,0-6.30359-1.38916-8.40266-3.87393
	c-1.93398-2.20926-2.88257-5.08566-2.65005-8.0661c0.26933-2.93152,1.60341-5.56921,3.8618-7.52151
	c4.47981-3.80054,11.76878-3.19464,15.58145,1.21793c1.93398,2.26437,2.8213,5.14694,2.59496,8.0661
	c-0.2204,2.93152-1.60339,5.64264-3.81883,7.51535C252.66693,343.52795,250.12091,344.47037,247.53212,344.47037
	L247.53212,344.47037z M224.92485,317.99533c-3.2619,0-6.29744-1.42596-8.3967-3.86179
	c-1.93398-2.27054-2.87642-5.08569-2.65005-8.06613c0.27548-2.93765,1.59724-5.58752,3.8618-7.52148
	c4.47365-3.81268,11.76262-3.20682,15.58762,1.22406c1.87889,2.25223,2.81516,5.07953,2.59496,8.06613
	c-0.22038,2.93149-1.59724,5.56921-3.81268,7.51532C230.06581,317.05887,227.53212,317.99533,224.92485,317.99533
	L224.92485,317.99533z M202.32373,291.53241c-3.25592,0-6.29744-1.43213-8.40268-3.86777
	c-1.92781-2.27054-2.87024-5.14078-2.65004-8.0661c0.27548-2.93152,1.60339-5.64264,3.86777-7.52151
	c4.47981-3.81268,11.76878-3.20084,15.58145,1.21793c1.87889,2.25818,2.81516,5.08566,2.59496,8.0661
	c-0.22038,2.92535-1.59723,5.58136-3.86777,7.51535C207.46451,290.59598,204.92484,291.53241,202.32373,291.53241
	L202.32373,291.53241z"/>
<path class="st0" d="M287.5325,306.83243c-2.48474,0-4.85315-0.82626-6.79926-2.37457
	c-4.79807-3.70267-5.63049-10.66724-1.87888-15.4653c3.59247-4.64508,10.83231-5.53241,15.47742-1.87888
	c4.81039,3.75162,5.63049,10.71616,1.87888,15.47147C294.10541,305.2901,290.95969,306.83243,287.5325,306.83243L287.5325,306.83243
	z M260.121,285.3941c-2.48474,0-4.85315-0.8201-6.79311-2.36838c-4.80421-3.75778-5.63646-10.72235-1.87888-15.53253
	c3.64757-4.63895,10.83232-5.52646,15.53252-1.87888c4.74911,3.76373,5.63647,10.7283,1.87888,15.5325
	C266.70007,283.84561,263.55435,285.3941,260.121,285.3941L260.121,285.3941z M232.71567,263.90054
	c-2.48476,0-4.80423-0.83224-6.79311-2.3869c-4.81039-3.75775-5.63646-10.71001-1.87889-15.47145
	c3.64758-4.6451,10.83234-5.58136,15.52637-1.92781c4.74297,3.80669,5.63048,10.77722,1.87888,15.52039
	C239.34984,262.35223,236.14902,263.90054,232.71567,263.90054L232.71567,263.90054z"/>
<path class="st0" d="M289.41141,244.06563c-1.32196,0-2.59497-0.22038-3.8067-0.66096
	c-2.82132-1.05263-5.03061-3.0968-6.2485-5.75282c-1.21176-2.70496-1.38321-5.69156-0.33038-8.45776
	c2.03799-5.57539,8.5618-8.672,14.19843-6.57292c2.76007,1.04646,4.96951,3.0968,6.18726,5.74049
	c1.27301,2.70496,1.38318,5.69156,0.33038,8.4518C298.14465,241.13412,294.00757,244.06563,289.41141,244.06563L289.41141,244.06563
	z M256.69998,232.07664c-1.26685,0-2.54582-0.27548-3.80669-0.72223c-5.69772-2.09909-8.62306-8.4518-6.52399-14.14336
	c1.98907-5.58136,8.56796-8.67815,14.14952-6.57907c5.74664,2.10524,8.672,8.45776,6.57907,14.20461
	C265.48834,229.14514,261.34509,232.07664,256.69998,232.07664L256.69998,232.07664z"/>
<path class="st0" d="M227.89314,139.10767l0.06126-0.0551l-41.71399-41.63441V0H31.5513v89.27864
	C-0.70719,125.3315-7.04758,170.72966,11.7898,189.56703l83.55029,82.36302c7.10538,6.85437,16.95233,10.50192,28.56815,10.50192
	c23.26826,0,52.45461-14.73688,76.17558-38.44591C237.11591,206.91737,249.25804,160.98674,227.89314,139.10767z M49.9296,72.13655
	v-53.7519h117.92635v60.67985l-22.62558-22.57665c-0.06126-0.0551-0.1102-0.14082-0.1653-0.19592
	C127.50072,38.7397,84.9911,44.94543,49.9296,72.13655z M186.13023,230.03247
	c-19.84723,19.85321-44.27811,32.68079-62.22816,32.68079c-6.59737,0-11.66476-1.71976-15.06747-5.12863
	c-5.73451-5.7222-6.69524-16.69536-2.65005-30.08585c4.74297-15.70995,15.47146-32.47272,30.21451-47.20363
	c19.84723-19.84723,44.27812-32.67462,62.22816-32.67462c6.60353,0,11.67091,1.71976,15.06747,5.11632
	C225.45116,164.50563,217.03018,199.13869,186.13023,230.03247z"/>
</svg>
