<svg xmlns="http://www.w3.org/2000/svg" viewBox="462.9577 0 994.47607 995" enable-background="new 462.9577 0 994.47607 995"><path d="m1136.23 416.99l14.16 19.9 2.73-.54 1.1-12.43.95-13.79-1.62-8.15-4.37-1.04-6.04 6.03-10.75 3.52z"/><path d="m1428.15 329.62c-.706-1.99-1.502-3.93-2.249-5.91-2.677-7.134-5.502-14.238-8.517-21.313-1.353-3.184-2.736-6.328-4.159-9.472-1.045-2.318-1.97-4.657-3.065-6.965-2.706-5.771-5.532-11.462-8.438-17.08-.289-.567-.607-1.104-.896-1.662-4.597-8.806-9.432-17.403-14.477-25.81-.318-.537-.627-1.085-.955-1.622-5.413-8.955-11.09-17.661-16.995-26.16-.139-.199-.259-.398-.398-.587-37.28-53.601-83.948-98.12-136.65-132.36-.298-.199-.597-.388-.895-.577-8.577-5.552-17.313-10.836-26.2-15.84-.736-.418-1.483-.816-2.229-1.224-8.686-4.836-17.502-9.433-26.447-13.731-.876-.438-1.771-.826-2.647-1.244-9.04-4.279-18.19-8.328-27.472-12.06-.577-.229-1.154-.428-1.731-.657-9.452-3.751-19-7.234-28.666-10.398-.358-.119-.706-.249-1.065-.368-10.02-3.264-20.14-6.179-30.357-8.796-.338-.09-.657-.209-1.01-.289 0 0-.01.01-.01.02-39.949-10.209-81.26-15.512-122.96-15.512-2.985 0-5.99.189-8.985.239-1.96.03-3.93.1-5.88.159-16.706.507-33.432 1.861-50.17 4.08-2.478.328-4.945.637-7.413 1-4.696.697-9.393 1.453-14.08 2.289-3.274.577-6.517 1.234-9.761 1.881-5.9 1.174-11.801 2.438-17.681 3.831-5.05 1.194-10.09 2.428-15.08 3.771-3.234.876-6.468 1.821-9.701 2.766-5.154 1.502-10.268 3.094-15.353 4.756-2.448.806-4.895 1.562-7.343 2.408-7.532 2.597-14.985 5.373-22.368 8.308-1.632.657-3.254 1.363-4.895 2.03-6.487 2.667-12.905 5.472-19.263 8.408-1.075.488-2.159.905-3.234 1.413-.677.318-1.323.677-2 1-6.865 3.274-13.681 6.637-20.388 10.219-1.294.687-2.537 1.433-3.821 2.129-5.144 2.796-10.239 5.671-15.283 8.656-3.065 1.811-6.079 3.672-9.09 5.532-3 1.871-6 3.761-8.955 5.691-3.552 2.308-7.094 4.617-10.577 7-1.662 1.144-3.284 2.328-4.935 3.492-13.831 9.731-27.05 20.09-39.641 31.01-.866.756-1.741 1.502-2.597 2.259-4.279 3.771-8.497 7.592-12.627 11.482-.507.478-1 .975-1.512 1.453-12.836 12.219-24.925 25.04-36.27 38.42-.935 1.104-1.881 2.179-2.806 3.293-3.104 3.731-6.119 7.502-9.114 11.313-1.522 1.94-3.045 3.9-4.537 5.87-2.687 3.522-5.333 7.05-7.91 10.647-1.791 2.487-3.522 5.02-5.274 7.552-2.279 3.293-4.577 6.567-6.776 9.91-3.682 5.592-7.254 11.263-10.716 17.03-1.463 2.438-2.826 4.925-4.239 7.393-2.279 3.95-4.547 7.9-6.726 11.93-1.453 2.696-2.846 5.403-4.249 8.119-2.02 3.9-4 7.831-5.93 11.801-1.313 2.726-2.617 5.453-3.88 8.209-1.91 4.149-3.761 8.338-5.572 12.547-1.085 2.577-2.199 5.144-3.264 7.731-.398.965-.826 1.9-1.224 2.866.06-.07.129-.149.199-.219-15.582 38.706-26.318 79.31-31.84 120.84 0 0-.01 0-.02 0-.209 1.552-.289 3.104-.478 4.657-.915 7.403-1.711 14.835-2.298 22.288-.169 2.139-.229 4.269-.368 6.408-.458 7.04-.816 14.1-.975 21.18-.04 2.01-.01 4.02-.03 6.03-.07 7.204-.01 14.408.229 21.631.06 1.831.169 3.652.249 5.482.328 7.383.816 14.756 1.483 22.16.149 1.652.318 3.293.488 4.945.746 7.472 1.672 14.935 2.766 22.397.229 1.582.468 3.174.716 4.766 1.154 7.363 2.487 14.716 3.98 22.06.348 1.691.677 3.383 1.035 5.065 1.502 7.01 3.194 14.02 5.01 21 .517 1.99 1 3.98 1.552 5.96 1.751 6.408 3.691 12.776 5.711 19.14.796 2.517 1.552 5.05 2.398 7.562 1.871 5.572 3.92 11.09 6 16.636 1.194 3.174 2.328 6.378 3.582 9.522 1.9 4.766 3.98 9.492 6.04 14.229 1.622 3.731 3.174 7.482 4.885 11.164.338.736.627 1.492.975 2.239 3.045 6.477 6.239 12.836 9.532 19.11.687 1.323 1.423 2.627 2.119 3.94 3.642 6.816 7.413 13.502 11.323 20.09.448.746.876 1.512 1.323 2.269 4.676 7.761 9.542 15.353 14.577 22.786.01.01.01.02.02.03 93.91 138.33 249.8 217.71 411.61 217.71 70.864 0 142.83-15.204 211.21-47.34 234.2-110.06 342.51-379.34 256.6-618.03m-265.07 600.02c-64.19 30.16-132.39 45.45-202.74 45.45-146.57 0-283.87-68.17-373.4-179.91-1.274-3.353-2.547-6.696-3.821-10.05 5.482.657 10.975 1.303 16.447 1.96 3-.925 6.01-1.831 9-2.746 1.045-6.517 2.09-13.05 3.134-19.592-.786-7.821-1.562-15.661-2.348-23.492-1.443-3.781-2.876-7.572-4.318-11.363 1.96-1.303 3.93-2.607 5.88-3.92.915-3.662 1.831-7.313 2.736-10.975 2.876-1.95 5.751-3.92 8.617-5.87.398-6.657.786-13.323 1.174-19.98-1.701-3.791-3.393-7.582-5.094-11.373-3.781-2.08-7.572-4.169-11.363-6.259-3.791-6.527-7.572-13.06-11.363-19.592-5.094-2.866-10.179-5.741-15.273-8.617-6.01-3.652-12.01-7.303-18.02-10.975-3.403-6.129-6.796-12.268-10.189-18.417-4.955-6.259-9.92-12.537-14.875-18.796 0-6.01 0-12.01 0-18.03-1.701-5.482-3.403-10.975-5.104-16.447-4.696-7.184-9.393-14.358-14.1-21.542-3.393-8.497-6.796-16.975-10.179-25.462-1.303-8.617-2.617-17.223-3.92-25.86-1.443-5.602-2.876-11.224-4.308-16.835-4.527-9.652-9.05-19.303-13.582-28.964 2.129-17.9 5.293-35.631 9.383-53.11l5.463 15.472 7.97 11.821 6.159 3.343-6.935-15.16-5.114-17.94-.249-16.965-.667-5.612c12.248-41.969 30.16-82.22 53.38-119.46 3.841-2.856 7.681-5.701 11.522-8.557 4.796-4.448 9.602-8.905 14.388-13.363 7.114-2.736 14.228-5.482 21.343-8.219 3.94-1.632 7.88-3.254 11.821-4.885.428 2.736.856 5.492 1.284 8.229 3.94.08 7.88.169 11.821.249 5.652-1.881 11.313-3.771 16.965-5.652-5.224-1.881-10.457-3.771-15.671-5.642 3.423-3.094 6.846-6.169 10.268-9.263 2.746-2.826 5.492-5.652 8.229-8.487-1.204-2.995-2.398-6-3.592-8.985 3.244-.348 6.507-.687 9.761-1.035 3.682 3.433 7.363 6.846 11.04 10.278 3.851-.09 7.701-.179 11.562-.259 3.522-.169 7.02-.338 10.547-.507 2.567-4.547 5.134-9.08 7.701-13.622 1.801-6.428 3.592-12.855 5.393-19.283 8.398-10.278 16.796-20.557 25.19-30.845-5.92 1.542-11.821 3.094-17.731 4.627 4.358-5.482 8.736-10.965 13.09-16.437 3-4.796 6-9.602 8.995-14.398-4.965 2.239-9.94 4.458-14.905 6.686-7.194 5.482-14.388 10.975-21.582 16.447-5.582 2.567-11.144 5.144-16.716 7.701-7.791 3.094-15.582 6.169-23.392 9.263 7.283-6.259 14.567-12.517 21.84-18.766 1.871-3 3.721-6.01 5.582-9 18.776-13.572 38.735-25.92 59.859-36.875 3.373.388 6.746.776 10.129 1.164.438 3.592.856 7.194 1.294 10.796-2.736 4.706-5.492 9.413-8.229 14.13-2.229 3.94-4.448 7.88-6.676 11.821 6.249.09 12.507.179 18.756.249 6.686-3.512 13.363-7.02 20.05-10.537 7.711-3.592 15.422-7.204 23.13-10.796 6.846-3 13.701-6 20.557-8.995-2.657-1.542-5.313-3.085-7.97-4.627-.259-2.657-.517-5.303-.766-7.97 2.905-3.333 5.821-6.676 8.736-10.02 1.532-3.343 3.085-6.686 4.627-10.03 2.308 2.06 4.627 4.109 6.935 6.169 1.104-1.453 2.229-2.915 3.343-4.368 2.657.856 5.303 1.721 7.97 2.577 4.716.428 9.413.856 14.13 1.284-3.164 4.199-6.338 8.398-9.502 12.597-1.801 2.06-3.592 4.109-5.403 6.169-3.592 4.288-7.194 8.567-10.796 12.845-5.731 4.975-11.472 9.94-17.213 14.905-3.761 1.204-7.532 2.398-11.303 3.602-3.94 4.02-7.88 8.05-11.821 12.08-3.94 2.05-7.88 4.109-11.821 6.169-4.109 4.109-8.219 8.219-12.328 12.328-1.97 3.254-3.94 6.507-5.92 9.761 1.035 1.035 2.06 2.06 3.094 3.094-.766 2.478-1.542 4.965-2.308 7.443 2.537 1.303 5.075 2.607 7.612 3.9 2.657-2.229 5.313-4.448 7.97-6.676 3.681-2.308 7.363-4.627 11.04-6.935 4.358-2.667 8.746-5.313 13.1-7.97 4.627-.517 9.254-1.035 13.88-1.542 5.582-1.881 11.134-3.771 16.706-5.652 2.826-1.801 5.652-3.592 8.497-5.393 2.816.677 5.642 1.373 8.477 2.05 7.114-1.104 14.229-2.229 21.333-3.343 2.826-1.96 5.652-3.94 8.487-5.91 3.433-3.512 6.856-7.02 10.278-10.537 4.965-4.627 9.94-9.254 14.905-13.88 2.826-3.094 5.652-6.169 8.487-9.263 3.771-3.512 7.542-7.02 11.313-10.537 2.995-1.194 6-2.398 8.985-3.592-1.92-3.672-3.811-7.343-5.691-11.03 3.851 1.97 7.701 3.94 11.562 5.92 6.935 1.104 13.88 2.229 20.815 3.333 6.686-.169 13.363-.338 20.05-.517 8.398-1.453 16.796-2.905 25.18-4.358 2.139-2.736 4.288-5.482 6.428-8.219 4.716 1.194 9.423 2.388 14.14 3.592 2.229-.179 4.448-.338 6.686-.517-.438-3.512-.866-7.02-1.293-10.537 2.736-1.801 5.482-3.602 8.229-5.403 4.02-1.453 8.05-2.915 12.08-4.358 4.706.169 9.423.338 14.14.507.229-2.07.488-4.149.726-6.229-.378-.328-.766-.657-1.144-.985 9.09 2.05 18.11 4.378 27.04 6.945-.348 1.453-.706 2.915-1.055 4.378-2.358-1.393-4.726-2.776-7.084-4.169-4.577.975-9.164 1.94-13.741 2.915 1.254 3.473 2.497 6.935 3.751 10.408 5.622 5.761 11.243 11.522 16.855 17.283-.209 4.776-.408 9.572-.627 14.358 3.95 3.114 7.91 6.249 11.86 9.363-2.915 4.786-5.831 9.572-8.746 14.358 1.871.348 3.751.697 5.622 1.035 1.731 2.01 3.473 4.02 5.194 6.04-4.995 1.453-9.99 2.905-14.985 4.358-1.741 4.239-3.473 8.477-5.204 12.696-1.731 1.323-3.473 2.647-5.194 3.96-2.637 1.801-5.274 3.602-7.91 5.403-2.089-1.592-4.169-3.184-6.249-4.776-1.672-1.323-3.333-2.647-5-3.96-2.905-.895-5.821-1.801-8.736-2.696-4.368-.348-8.746-.687-13.11-1.035-2.289-.348-4.577-.687-6.866-1.035-1.323-.209-2.637-.418-3.95-.627-1.522-1.393-3.055-2.776-4.577-4.169-2.647 0-5.273 0-7.91 0-2.915.557-5.831 1.104-8.746 1.662-3.184.836-6.388 1.672-9.572 2.507-2.229 2.766-4.438 5.552-6.666 8.318-1.393 3.124-2.776 6.249-4.159 9.363-1.741 2.358-3.482 4.726-5.204 7.084-2.706 2.846-5.413 5.691-8.119 8.527-2.567 1.672-5.134 3.333-7.701 5-2.776 3.254-5.552 6.517-8.328 9.771-2.995 2.706-5.97 5.413-8.955 8.119-.478 2.637-.975 5.274-1.453 7.91.209 2.08.408 4.159.627 6.249.557 2.01 1.104 4.02 1.662 6.03.975 1.662 1.94 3.333 2.915 4.995 1.453.766 2.915 1.522 4.368 2.288 2.497-1.184 4.995-2.358 7.492-3.532.139-1.741.279-3.473.418-5.204 3.333-.756 6.666-1.522 9.99-2.279.149 1.244.279 2.488.418 3.741 1.532 2.776 3.065 5.552 4.587 8.328 1.174 1.94 2.348 3.89 3.532 5.831-.209 1.174-.418 2.358-.627 3.532.139 1.741.269 3.473.408 5.204 2.428.348 4.856.687 7.283 1.035 1.453-1.254 2.915-2.497 4.368-3.751 2.497-1.731 4.995-3.473 7.492-5.204-.756-2.219-1.522-4.438-2.279-6.657-.279-2.229-.557-4.438-.836-6.667 3.672-1.522 7.353-3.055 11.03-4.577-1.323-2.01-2.647-4.02-3.96-6.03-2.497-1.453-4.995-2.915-7.492-4.368.149-4.438.279-8.885.418-13.323 2.985-2.428 5.97-4.856 8.945-7.283.905-2.696 1.811-5.413 2.696-8.119 1.323-2.149 2.647-4.298 3.96-6.448 3.184.07 6.388.149 9.572.209.488 2.358.975 4.716 1.453 7.07-2.696 2.149-5.413 4.308-8.119 6.448-.826 2.647-1.662 5.274-2.497 7.91 1.403 3.333 2.776 6.667 4.169 10 1.323 1.94 2.637 3.89 3.95 5.831 3.751-.209 7.502-.418 11.243-.627 1.871-1.94 3.741-3.89 5.612-5.821 4.239.965 8.477 1.93 12.696 2.905-.07 1.045-.139 2.089-.209 3.124-1.662.905-3.333 1.801-4.995 2.696-3.473 1.254-6.935 2.497-10.418 3.751-2.497.627-4.995 1.254-7.492 1.871-1.244 2.219-2.497 4.438-3.741 6.657.896 1.035 1.801 2.08 2.696 3.114-1.592.567-3.184 1.114-4.786 1.672.497 3.264.975 6.517 1.453 9.781 1.254 2.08 2.497 4.159 3.751 6.249-2.915 1.94-5.831 3.89-8.746 5.831-1.741.408-3.473.826-5.204 1.244-1.094-.975-2.219-1.94-3.323-2.915-.836.557-1.662 1.104-2.497 1.672-1.741 1.174-3.473 2.348-5.204 3.532-1.871.896-3.741 1.811-5.612 2.696-.687 1.522-1.393 3.055-2.089 4.587-1.592-1.403-3.184-2.776-4.776-4.169-1.035-1.662-2.08-3.333-3.124-4.995-1.244 1.244-2.497 2.497-3.741 3.751-3.403-.279-6.806-.567-10.199-.836-1.174-1.871-2.368-3.751-3.542-5.622.687-2.279 1.393-4.577 2.08-6.866.905-2.01 1.811-4.02 2.706-6.03-1.463-2.149-2.915-4.308-4.378-6.448-1.602 1.393-3.194 2.776-4.786 4.159-1.662 1.871-3.333 3.751-4.995 5.622 1.035 3.532 2.08 7.07 3.114 10.617.139 2.418.279 4.846.418 7.283-2.08.756-4.169 1.522-6.249 2.279-2.637 0-5.264 0-7.9 0-1.602 1.104-3.194 2.229-4.796 3.323-1.393 2.288-2.766 4.587-4.159 6.875-1.871 1.592-3.751 3.184-5.612 4.786-3.264 1.174-6.527 2.358-9.781 3.532-.209 1.662-.428 3.323-.627 4.995-2.428 1.383-4.856 2.766-7.273 4.159-.209.975-.418 1.95-.627 2.915-3.532-.418-7.07-.826-10.607-1.244-.418 1.592-.836 3.184-1.254 4.776-1.323.498-2.637.985-3.95 1.453-2.647-.965-5.273-1.94-7.91-2.905-2.289 1.174-4.587 2.358-6.865 3.532 1.035 1.174 2.08 2.358 3.114 3.532 3.542 1.313 7.084 2.637 10.617 3.95.488 2.149.975 4.298 1.453 6.448 1.254 1.244 2.497 2.507 3.751 3.751-.348 1.453-.697 2.905-1.045 4.358-.627 4.099-1.244 8.189-1.871 12.288-1.453 1.662-2.915 3.333-4.368 4.995-3.682.139-7.353.279-11.03.418-5.612-1.114-11.243-2.229-16.855-3.343-3.403.348-6.806.697-10.199 1.045-1.94 2.497-3.89 4.995-5.831 7.502-2.696 3.532-5.413 7.07-8.109 10.607.348 3.055.687 6.099 1.035 9.154-.766 2.706-1.522 5.413-2.289 8.119.905 2.905 1.811 5.831 2.706 8.746 1.592 1.592 3.184 3.184 4.776 4.776 2.985.766 5.98 1.522 8.945 2.289.08 2.497.149 4.995.209 7.502 1.254.756 2.497 1.512 3.751 2.279 2.567-1.174 5.134-2.348 7.691-3.532 5.691-.07 11.383-.129 17.07-.199 1.323-.836 2.637-1.672 3.95-2.507 2.289-1.592 4.577-3.184 6.865-4.776 1.323-1.403 2.647-2.776 3.95-4.169-.975-2.577-1.93-5.134-2.905-7.701.478-2.567.975-5.134 1.453-7.691 2.497-2.846 4.995-5.691 7.502-8.537 3.323-1.104 6.657-2.219 9.99-3.333 1.731-2.637 3.473-5.273 5.194-7.9.348-1.811.696-3.612 1.035-5.413 2.846-.696 5.691-1.393 8.537-2.089 2.846.905 5.681 1.811 8.527 2.706 4.617-1.751 9.224-3.492 13.84-5.224 3.373-1.015 6.746-2.01 10.119-3.035 1.801.786 3.592 1.572 5.393 2.358.786 1.861 1.572 3.711 2.358 5.572 2.259 2.348 4.497 4.716 6.756 7.084 2.01 1.96 4.04 3.94 6.06 5.9 3.045 1.294 6.07 2.587 9.104 3.88 2.527 1.343 5.065 2.696 7.592 4.05 1.861 1.453 3.711 2.915 5.572 4.368 1.174 1.97 2.348 3.94 3.532 5.91-.169 1.741-.338 3.483-.507 5.224-.627 1.244-1.234 2.478-1.861 3.711.736 1.174 1.453 2.358 2.199 3.532 1.015-1.015 2.02-2.02 3.035-3.035 1.174-1.632 2.358-3.254 3.542-4.885.507-1.075 1.015-2.139 1.512-3.214-.627-1.055-1.244-2.129-1.861-3.194-.955-.955-1.91-1.91-2.866-2.866.567-.846 1.124-1.682 1.682-2.527.458-.667.905-1.353 1.353-2.03 1.572 1.025 3.144 2.03 4.726 3.045.677.955 1.353 1.91 2.02 2.866.905-.677 1.801-1.353 2.696-2.02-1.632-1.691-3.254-3.373-4.885-5.065-2.02-1.403-4.05-2.806-6.07-4.219-2.02-1.512-4.05-3.035-6.07-4.547-1.055.06-2.139.109-3.194.169-2.259-.677-4.497-1.343-6.746-2.02-1.413-1.801-2.816-3.592-4.219-5.403-1.244-2.358-2.478-4.716-3.711-7.07-1.801-.846-3.592-1.692-5.393-2.537-1.065-1.9-2.139-3.821-3.204-5.721.328-.736.667-1.463 1.015-2.199-.567-1.114-1.124-2.259-1.682-3.373.667-.846 1.343-1.692 2.02-2.537 1.91-.448 3.821-.895 5.721-1.343 1.582 1.114 3.154 2.249 4.736 3.373 1.234 1.622 2.468 3.254 3.711 4.885 1.343 1.741 2.696 3.483 4.04 5.214 1.512 1.244 3.035 2.478 4.547 3.711 1.801.627 3.592 1.244 5.403 1.861.955 1.184 1.9 2.368 2.866 3.542 3.144.726 6.298 1.453 9.433 2.189 1.691 2.488 3.373 4.945 5.065 7.423-.567 2.03-1.124 4.05-1.692 6.06 1.522 1.582 3.045 3.154 4.557 4.736 2.298 1.741 4.607 3.492 6.905 5.224 3.045.448 6.069.896 9.104 1.343 1.075 1.97 2.139 3.94 3.204 5.91 4.109 1.801 8.209 3.592 12.308 5.393.726-1.622 1.463-3.254 2.199-4.895-2.537-1.741-5.064-3.482-7.592-5.214-1.015-1.751-2.03-3.492-3.045-5.224-.667-1.632-1.343-3.264-2.02-4.885 1.861-2.139 3.711-4.269 5.572-6.408 2.647-.229 5.274-.458 7.92-.677 2.368 0 4.726 0 7.084 0 2.468-1.015 4.945-2.03 7.423-3.035 1.075-1.134 2.159-2.259 3.234-3.373-2.259-4.517-4.517-9.02-6.776-13.552 3.711-1.602 7.413-3.214 11.124-4.826 4.826-3.542 9.671-7.094 14.507-10.637 3.542.328 7.094.647 10.637.975 2.905-2.259 5.801-4.517 8.706-6.776 4.348.318 8.696.637 13.05.975 4.507 2.099 9.02 4.189 13.542 6.278 3.383 2.099 6.776 4.199 10.159 6.298 0 2.895 0 5.791 0 8.706-2.736 1.114-5.483 2.259-8.219 3.383-3.711.796-7.423 1.612-11.124 2.418-3.87-1.453-7.731-2.905-11.602-4.358-4.517-.328-9.02-.647-13.542-.965-2.736 2.408-5.483 4.826-8.219 7.244-3.214.975-6.448 1.93-9.671 2.915-3.393 1.771-6.776 3.532-10.159 5.313-3.871 1.771-7.731 3.542-11.602 5.313.318 3.224.637 6.448.965 9.671 3.393 3.234 6.776 6.448 10.159 9.681 3.542 4.199 7.094 8.378 10.637 12.577 3.065-.806 6.119-1.612 9.194-2.418 1.114-1.93 2.259-3.871 3.383-5.811 2.099 1.622 4.189 3.234 6.288 4.846 4.358-.647 8.706-1.303 13.05-1.93 1.453-1.94 2.905-3.88 4.358-5.811 4.517.318 9.02.647 13.542.975-.388 2.527-.766 5.05-1.144 7.582-.149 6.666-.279 13.323-.418 19.99.557 4.577 1.104 9.154 1.662 13.731 1.453.348 2.915.697 4.368 1.045 1.104 4.159 2.229 8.328 3.333 12.497-.627 2.488-1.254 4.995-1.871 7.482.348 3.691.697 7.383 1.045 11.07 1.612 1.124 3.224 2.259 4.836 3.383 3.383 4.03 6.766 8.07 10.159 12.1 2.895 4.189 5.801 8.378 8.696 12.567 2.099 1.293 4.199 2.587 6.288 3.871 2.428 5 4.836 10.01 7.253 15 2.418 3.542 4.836 7.094 7.254 10.627 3.214 1.294 6.438 2.577 9.671 3.88 1.781 3.214 3.542 6.438 5.313 9.671 3.711 3.871 7.423 7.731 11.124 11.612 4.866 11.85 9.731 23.711 14.597 35.581 8.388-6.129 16.766-12.248 25.14-18.388 6.776-6.438 13.532-12.895 20.308-19.333 2.259-2.269 4.507-4.517 6.776-6.776.318-3.383.637-6.766.965-10.159 3.075-2.895 6.119-5.791 9.194-8.696 2.099-1.94 4.189-3.88 6.288-5.801.806-3.871 1.612-7.741 2.418-11.612 1.93-1.612 3.87-3.224 5.801-4.826-1.124-3.393-2.259-6.776-3.393-10.159 1.622-4.03 3.224-8.07 4.836-12.1.647-3.383 1.293-6.776 1.93-10.159-3.383-2.418-6.776-4.836-10.159-7.254-2.577.488-5.164.985-7.731 1.453-2.099-1.453-4.189-2.905-6.288-4.358-2.099-4.826-4.189-9.681-6.288-14.507-1.453 4.826-2.905 9.681-4.358 14.507-1.612 3.065-3.224 6.119-4.836 9.194-2.736 1.453-5.482 2.895-8.209 4.348-1.622-.637-3.234-1.284-4.836-1.93-.169-2.099-.328-4.189-.488-6.288-.806-2.736-1.612-5.473-2.418-8.219-1.124.806-2.259 1.622-3.383 2.418 0 2.269 0 4.517 0 6.776-1.453-1.781-2.905-3.542-4.358-5.323-2.259-2.726-4.517-5.482-6.776-8.209-4.03-3.711-8.06-7.423-12.09-11.124-.637-3.224-1.293-6.448-1.93-9.671 2.895-1.622 5.801-3.234 8.706-4.846 3.542 3.542 7.094 7.094 10.637 10.637 1.453 2.099 2.896 4.199 4.348 6.298 1.94-.169 3.88-.328 5.801-.488 2.905 1.612 5.811 3.214 8.706 4.826 1.93 0 3.871 0 5.801 0 2.587-3.214 5.164-6.438 7.741-9.671 1.602-.159 3.224-.318 4.836-.488 1.602 3.393 3.214 6.776 4.826 10.159 6.448-1.93 12.895-3.861 19.343-5.791 4.507-2.428 9.02-4.846 13.532-7.254 3.074-1.93 6.129-3.871 9.194-5.801.328-.169.637-.328.975-.498 3.214 3.075 6.448 6.129 9.671 9.194 3.383 1.124 6.776 2.269 10.159 3.393 2.408-1.94 4.826-3.88 7.244-5.811 3.224 3.393 6.448 6.786 9.681 10.159 3.871 9.02 7.731 18.05 11.602 27.07 3.542 6.617 7.094 13.224 10.637 19.83 4.03 7.094 8.06 14.189 12.09 21.283 2.259 6.925 4.517 13.86 6.776 20.796.975-7.084 1.93-14.179 2.905-21.273-.328-11.293-.637-22.587-.975-33.85-2.418-4.686-4.836-9.353-7.253-14.02 1.124-7.741 2.259-15.492 3.383-23.21-1.293-9.522-2.587-19.03-3.871-28.537-.488-5.313-.975-10.637-1.453-15.96.886-2.647 1.771-5.293 2.647-7.94 71.35 224.61-33.02 473.48-251.94 576.36"/><path d="m883.75 156.96l-4.11-10.02-7.18-.51-8.75-1.03-9.5-1.29-4.63 3.86 2.57 4.62-3.34 5.41 4.37 3.59 10.28 1.28 9.51-2.57z"/><path d="m865.9 252.37l9.29-2.36 5.9-1.69 4.22-5.73 2.17-6.41 3.05-3.53-4.05-7.6-7.07-1.17-4.05 6.91-4.39 1.68-.85 6.08-2.69 2.03-.51 3.02-3.04 2.37-.66 5.23z"/><path d="m884.8 265.54l6.06-2.54 3.37 1 6.07-3.02h10.3l10.61-1.02 3.04-2.7-2.02-3.54 4.55-4.21-5.23-4.22-3.87-5.73-2.53-5.91-3.38-3.86-.33-3.9-4.38-3.88.67-4.54 4.38-3.21.85-6.07-.34-7.58-19.73 1.51-2.36 9.28 1.35 7.93 2.02 7.41 5.56 4.39 3.55 6.74-4.89 3.71h-3.38l.34 6.74-3.88 1.86-1.68 2.88 2.87 3.7z"/><path d="m1228.78 833.1l13.88-6.18 7.44-11.81 12.09-21.33 9.25-17.99 9.51-17.73-1.03-24.92-6.94 12.58h-2.31l-3.09 5.66-7.97 9.77-9.24 7.7-8.74 4.88-1.55 5.65-3.34 4.12 1.55 9-1.8 6.94-4.88 4.88-5.4 7.45-4.11 5.92 2.31 3.85-2.58 6.17z"/><path d="m1041.89 913.04l-11.79-7.37 1.46-5.9-9.58-18.43-5.88-.74-7.38-30.94-19.9-30.23 2.21-19.9 16.95-21.37-7.36-16.22 2.94-11.05-11.8-18.43-25.06-33.17 8.85-32.43-9.59-14.74-25.05.73-8.11-3.67-10.32-14.75-43.48 8.1-9.58 5.17-14.01-5.9-34.65 5.9-34.64-31.7-24.31-16.21-19.9-7.37 12.51-40.54 11.8-28.01-3.69-28.75 8.11-19.16 11.8-8.85 2.2-11.78 15.48-14.01 27.28-13.26 8.11-27.28 14.74-8.84 11.79-11.05 10.32 5.89 12.54 2.95 15.46-6.65 17.7-7.35h25.79l17.69 2.95 9.58-5.17 11.06 2.95-7.37 21.37 6.63 5.9 27.28 10.32 11.06 8.11 19.9 6.64 8.84-5.17-2.2-9.58 5.15-7.37 27.27 5.9 30.22 2.94 12.53-1.47 14.74 2.94 26.54 44.97 9.58 14.74 8.84 5.89 9.58 25.81 11.06 8.09 10.32 16.96 14 11.06 16.96 15.48 5.89 8.11 7.37-6.63 10.32-1.48 6.64-8.11 17.69-12.54v29.49l-15.49 41.27-26.53 39.08-29.48 37.58-6.63 25.05 4.41 28.76 1.48 33.9-19.16 16.95-19.17 11.8-11.79 11.78 2.96 18.44-5.18 9.58-22.11 11.05-2.94 13.28-14.74 11.78-25.06 20.64-22.85 11.05-22.84 9.59z"/><path d="m1009.44 363.95l-8.86 3.26-7.31 1.1-.93 3.88 10.42 3.73 5.44 1.87 3.88-4.28-1.82-4.12"/><path d="m1111.12 383.23l6.22-2.17 5.75-3.27 6.84-5.6v2.34l-2.02 2.49-.94 2.95 1.24 1.39 1.72 2.8-2.18 1.87-3.42 1.55-3.81 2.49h-9.4l-2.18-2.49"/><path d="m958.96 338.47l-1.89 2.89.94 2.9 2.99 2.39v-2.22l.85-4.09"/></svg>