<?xml version="1.0" encoding="utf-8"?>
<!-- Generator: Adobe Illustrator 18.1.1, SVG Export Plug-In . SVG Version: 6.00 Build 0)  -->
<svg version="1.1" id="Calque_1" xmlns="http://www.w3.org/2000/svg" xmlns:xlink="http://www.w3.org/1999/xlink" x="0px" y="0px"
	 width="2408px" height="674px" viewBox="0 0 2408 674" enable-background="new 0 0 2408 674" xml:space="preserve">
<path fill-rule="evenodd" clip-rule="evenodd" fill="#0B0600" d="M1996.4,356.2v179.9h-30v31.5h-15.7v-20.3h-16.5v-284h-72.7v-9.8
	h-33v11.3c0,0-18.4,1.1-17.2,0c1.1-1.1,0,210.6,0,210.6h-8.3v57.7h-31.5V413.9h-30.7v-86.2h-90v30.7h-18v140.2h-8.2v77.2h-21v-33.7
	h-14.2V431.1h-13.5v-14.2h-6.8v-18.7h-11.2v-24h-26.2v21.7l-5.2,5.3v19.4h-12.8v128.2h-12c0,0,0-117.7,0-114.7c0,3-23.2,0-23.2,0
	v-28.5v-18.7h-9.7v-18.7h-17.2v-22.5h-18.8v22.5h-9.7v20.2h-6v19.5h-9v169.8h-32.8c-18.3-40.4-66.2-65.7-64.8-131.3
	c-0.8-4.8-12.6,1.5-13.3-3.3c-42.1-106-47.7-248.4-53.2-390.9c16.4-20.2-6.5-35.2-11.7-53.2c5.2,14.4-13.9,22.5-15,34.9
	c-0.7,8.1,5.5,13,6.7,20c2,11.7-1.1,24-1.7,36.6c-5.2,117.8-13.1,267.3-51.6,354.3c-4.8,0.2-10.9-0.9-13.3,1.7
	c3.1,41.4-15.3,59.5-31.6,83.2c-6.3,9.1-12.4,17.1-18.3,25c-6.3,8.3-14.8,17.4-13.3,23.1h-29.1v-13.5h-18v-11.2h-68.6v21.4H876.3
	v-42.7h-23.6v-13.5h-16.9V535h-20.3v56.2h-15.7V608H766v-25.8h-32.6v-27c0,0-28.1,0-30.4,0s0,25.9,0,25.9h-31.5v27H0v66h2408v-66.6
	l-345.6,0.6V356.2H1996.4z M1222.3,379.9c8.3,0,16.6,0,25,0c1.4,24.2,8.6,42.4,11.6,64.9c-16.6,0-33.2,0-49.9,0
	C1214.7,424.4,1218.7,402.3,1222.3,379.9z M1233.9,508c42.5-0.2,63.2,35.7,78.1,69.7h-156.2C1171.3,544.1,1191.4,508.2,1233.9,508z"
	/>
</svg>
