<svg xmlns="http://www.w3.org/2000/svg" viewBox="0 0 2408 674" enable-background="new 0 0 2408 674"><path fill-rule="evenodd" fill="#0b0600" d="m1996.4 356.2v179.9h-30v31.5h-15.7v-20.3h-16.5v-284h-72.7v-9.8h-33v11.3c0 0-18.4 1.1-17.2 0 1.1-1.1 0 210.6 0 210.6h-8.3v57.7h-31.5v-119.2h-30.7v-86.2h-90v30.7h-18v140.2h-8.2v77.2h-21v-33.7h-14.2v-111h-13.5v-14.2h-6.8v-18.7h-11.2v-24h-26.2v21.7l-5.2 5.3v19.4h-12.8v128.2h-12c0 0 0-117.7 0-114.7 0 3-23.2 0-23.2 0v-28.5-18.7h-9.7v-18.7h-17.2v-22.5h-18.8v22.5h-9.7v20.2h-6v19.5h-9v169.8h-32.8c-18.3-40.4-66.2-65.7-64.8-131.3-.8-4.8-12.6 1.5-13.3-3.3-42.1-106-47.7-248.4-53.2-390.9 16.4-20.2-6.5-35.2-11.7-53.2 5.2 14.4-13.9 22.5-15 34.9-.7 8.1 5.5 13 6.7 20 2 11.7-1.1 24-1.7 36.6-5.2 117.8-13.1 267.3-51.6 354.3-4.8.2-10.9-.9-13.3 1.7 3.1 41.4-15.3 59.5-31.6 83.2-6.3 9.1-12.4 17.1-18.3 25-6.3 8.3-14.8 17.4-13.3 23.1h-29.1v-13.5h-18v-11.2h-68.6v21.4h-102.2v-42.7h-23.6v-13.5h-16.9v16.7h-20.3v56.2h-15.7v16.8h-33.8v-25.8h-32.6v-27c0 0-28.1 0-30.4 0s0 25.9 0 25.9h-31.5v27h-671.5v66h2408v-66.6l-345.6.6v-251.9h-66m-774.1 23.7c8.3 0 16.6 0 25 0 1.4 24.2 8.6 42.4 11.6 64.9-16.6 0-33.2 0-49.9 0 5.7-20.4 9.7-42.5 13.3-64.9m11.6 128.1c42.5-.2 63.2 35.7 78.1 69.7h-156.2c15.5-33.6 35.6-69.5 78.1-69.7"/></svg>